<svg width="24" height="24" viewBox="0 0 24 24" xmlns="http://www.w3.org/2000/svg"><g fill="currentColor" fill-rule="evenodd" clip-rule="evenodd"><path d="M7.5 2.286a1 1 0 0 0-1 1v12a1 1 0 1 0 2 0v-12a1 1 0 0 0-1-1"/><path d="M8.207 2.579a1 1 0 0 0-1.414 0l-3.5 3.5a1 1 0 1 0 1.414 1.414L7.5 4.7l2.793 2.793a1 1 0 1 0 1.414-1.414z"/><path fill-opacity=".3" d="M16.5 22.286a1 1 0 0 0 1-1v-12a1 1 0 1 0-2 0v12a1 1 0 0 0 1 1"/><path fill-opacity=".3" d="M15.793 21.993a1 1 0 0 0 1.414 0l3.5-3.5a1 1 0 0 0-1.414-1.414L16.5 19.872l-2.793-2.793a1 1 0 0 0-1.414 1.414z"/></g></svg>
